<svg xmlns="http://www.w3.org/2000/svg" width="852" height="747" viewBox="0 0 852 747">
  <metadata><?xpacket begin="﻿" id="W5M0MpCehiHzreSzNTczkc9d"?>
<x:xmpmeta xmlns:x="adobe:ns:meta/" x:xmptk="Adobe XMP Core 5.6-c140 79.160451, 2017/05/06-01:08:21        ">
   <rdf:RDF xmlns:rdf="http://www.w3.org/1999/02/22-rdf-syntax-ns#">
      <rdf:Description rdf:about=""/>
   </rdf:RDF>
</x:xmpmeta>
                                                                                                    
                                                                                                    
                                                                                                    
                                                                                                    
                                                                                                    
                                                                                                    
                                                                                                    
                                                                                                    
                                                                                                    
                                                                                                    
                                                                                                    
                                                                                                    
                                                                                                    
                                                                                                    
                                                                                                    
                                                                                                    
                                                                                                    
                                                                                                    
                                                                                                    
                                                                                                    
                           
<?xpacket end="w"?></metadata>
<defs>
    <style>
      .cls-1, .cls-2 {
        fill: #e51041;
        fill-rule: evenodd;
      }

      .cls-2 {
        stroke: #e51041;
        stroke-linejoin: round;
        stroke-width: 6px;
      }
    </style>
  </defs>
  <path id="Cactus.Works" class="cls-1" d="M54.829,716.8a25.535,25.535,0,0,1-3.3,2.591,17.66,17.66,0,0,1-3.588,1.794,20.825,20.825,0,0,1-4.208,1.041,35.65,35.65,0,0,1-5.116.332,22.12,22.12,0,0,1-8.659-1.683,19.635,19.635,0,0,1-6.954-4.895,23.346,23.346,0,0,1-4.651-7.862,30.621,30.621,0,0,1-1.705-10.587,31.457,31.457,0,0,1,1.639-10.5,22.775,22.775,0,0,1,4.584-7.885,19.633,19.633,0,0,1,7.02-4.939,23.081,23.081,0,0,1,8.991-1.705A22.392,22.392,0,0,1,50.4,675.3a29.685,29.685,0,0,1,3.012,1.927,3.512,3.512,0,0,0,1.949.864,1.97,1.97,0,0,0,1.129-.288,2.317,2.317,0,0,0,.687-0.731l2.835-3.942a30.122,30.122,0,0,0-9.124-5.892,30.767,30.767,0,0,0-11.959-2.17,32.638,32.638,0,0,0-12.623,2.37,28.423,28.423,0,0,0-9.81,6.666,30.107,30.107,0,0,0-6.356,10.277A36.955,36.955,0,0,0,7.88,697.533a38.305,38.305,0,0,0,2.17,13.156,30.022,30.022,0,0,0,6.112,10.255,27.258,27.258,0,0,0,9.523,6.644,31.419,31.419,0,0,0,12.4,2.37,32.366,32.366,0,0,0,13.442-2.525,27.159,27.159,0,0,0,9.456-7.043l-3.41-3.677a1.642,1.642,0,0,0-1.24-.575,2.288,2.288,0,0,0-1.506.664h0Zm40.305-11.118L105.1,679.9a48.2,48.2,0,0,0,1.905-5.98q0.443,1.728.93,3.256t0.93,2.68l9.966,25.825h-23.7Zm16.21-39.911h-8.681L77.285,729.249h6.644a2.828,2.828,0,0,0,1.86-.62,3.112,3.112,0,0,0,1.019-1.417l5.935-15.327h28.479l5.936,15.327a3.522,3.522,0,0,0,1.062,1.461,2.853,2.853,0,0,0,1.861.576h6.643ZM200.68,716.8a25.571,25.571,0,0,1-3.3,2.591,17.643,17.643,0,0,1-3.588,1.794,20.818,20.818,0,0,1-4.207,1.041,35.668,35.668,0,0,1-5.116.332,22.121,22.121,0,0,1-8.659-1.683,19.639,19.639,0,0,1-6.954-4.895,23.34,23.34,0,0,1-4.65-7.862,30.621,30.621,0,0,1-1.706-10.587,31.452,31.452,0,0,1,1.639-10.5,22.774,22.774,0,0,1,4.584-7.885,19.632,19.632,0,0,1,7.021-4.939,23.077,23.077,0,0,1,8.991-1.705,22.387,22.387,0,0,1,11.515,2.79,29.566,29.566,0,0,1,3.012,1.927,3.516,3.516,0,0,0,1.949.864,1.969,1.969,0,0,0,1.129-.288,2.309,2.309,0,0,0,.687-0.731l2.835-3.942a30.138,30.138,0,0,0-9.124-5.892,30.768,30.768,0,0,0-11.959-2.17,32.638,32.638,0,0,0-12.623,2.37,28.427,28.427,0,0,0-9.811,6.666,30.1,30.1,0,0,0-6.355,10.277,36.954,36.954,0,0,0-2.259,13.156,38.308,38.308,0,0,0,2.17,13.156,30.023,30.023,0,0,0,6.112,10.255,27.258,27.258,0,0,0,9.523,6.644,31.416,31.416,0,0,0,12.4,2.37,32.367,32.367,0,0,0,13.443-2.525,27.163,27.163,0,0,0,9.456-7.043l-3.41-3.677a1.645,1.645,0,0,0-1.241-.575,2.286,2.286,0,0,0-1.5.664h0Zm73.213-51.029H224.2v7.22h20.6v56.256h8.548V672.993h20.551v-7.22Zm40.992,55.3a14.972,14.972,0,0,1-5.271-3.743,16.267,16.267,0,0,1-3.278-5.715,22.587,22.587,0,0,1-1.129-7.309V665.773h-8.548v38.582a28.937,28.937,0,0,0,1.749,10.188,23.49,23.49,0,0,0,5.027,8.128,23.106,23.106,0,0,0,7.973,5.382,29.48,29.48,0,0,0,21.082,0,22.884,22.884,0,0,0,7.951-5.382,23.681,23.681,0,0,0,5.005-8.128,28.959,28.959,0,0,0,1.749-10.188V665.773h-8.548v38.582a22.591,22.591,0,0,1-1.13,7.309,16.269,16.269,0,0,1-3.277,5.714,14.789,14.789,0,0,1-5.249,3.721A19.232,19.232,0,0,1,314.885,721.077Zm96.443-49.457a22.871,22.871,0,0,0-7.685-4.873,26.685,26.685,0,0,0-9.677-1.683,22.455,22.455,0,0,0-8.393,1.462,18.6,18.6,0,0,0-6.157,3.9,16.622,16.622,0,0,0-3.809,5.581,18.256,18.256,0,0,0,0,13.577,14.238,14.238,0,0,0,3.433,4.762,17.989,17.989,0,0,0,4.872,3.1,58.8,58.8,0,0,0,5.58,2.105q2.835,0.908,5.581,1.771a23.909,23.909,0,0,1,4.872,2.1,10.868,10.868,0,0,1,3.433,3.079,7.963,7.963,0,0,1,1.306,4.718,12.2,12.2,0,0,1-.886,4.739,10.274,10.274,0,0,1-2.546,3.655,11.57,11.57,0,0,1-4.053,2.37,16.36,16.36,0,0,1-5.448.841,18.94,18.94,0,0,1-4.385-.465,18.409,18.409,0,0,1-3.477-1.174,17.543,17.543,0,0,1-2.723-1.55q-1.2-.841-2.126-1.55t-1.661-1.174a2.517,2.517,0,0,0-1.307-.465,2.015,2.015,0,0,0-1.129.332,3.257,3.257,0,0,0-.864.819l-2.48,4.076a26.376,26.376,0,0,0,8.636,6.046,27.468,27.468,0,0,0,11.25,2.237,24.611,24.611,0,0,0,9.014-1.55,19.378,19.378,0,0,0,6.688-4.253,18.022,18.022,0,0,0,4.141-6.356,21.435,21.435,0,0,0,1.417-7.819,15.2,15.2,0,0,0-1.306-6.644,14.063,14.063,0,0,0-3.455-4.563,19.648,19.648,0,0,0-4.872-3.078q-2.724-1.218-5.581-2.193t-5.581-1.883a26.388,26.388,0,0,1-4.872-2.148,11.225,11.225,0,0,1-3.454-2.99,7.157,7.157,0,0,1-1.307-4.407,9.913,9.913,0,0,1,.753-3.876,8.63,8.63,0,0,1,2.237-3.123,10.857,10.857,0,0,1,3.676-2.1,15.185,15.185,0,0,1,5.071-.775,15.823,15.823,0,0,1,5.205.753,20.554,20.554,0,0,1,3.676,1.661q1.527,0.908,2.546,1.661a3.161,3.161,0,0,0,1.772.753,1.9,1.9,0,0,0,1.13-.332,3.258,3.258,0,0,0,.863-1Zm27,57.12a3.943,3.943,0,0,0,2.9,1.174,4.166,4.166,0,0,0,1.6-.31,3.969,3.969,0,0,0,1.306-.864,4.323,4.323,0,0,0,.886-1.285,3.849,3.849,0,0,0,.332-1.617,3.9,3.9,0,0,0-.332-1.594,4.19,4.19,0,0,0-2.192-2.193,3.92,3.92,0,0,0-1.6-.332,3.863,3.863,0,0,0-1.616.332,4.342,4.342,0,0,0-1.285.886,3.974,3.974,0,0,0-.864,1.307,4.161,4.161,0,0,0-.31,1.594A3.94,3.94,0,0,0,438.323,728.74Zm106.942-62.17a1.74,1.74,0,0,0-1.085.354,1.574,1.574,0,0,0-.6.842L527.77,719.283q-0.222.886-.421,1.882t-0.421,2.1q-0.222-1.107-.465-2.126a16.541,16.541,0,0,0-.554-1.86l-17.716-51.517a2.212,2.212,0,0,0-.62-0.864,1.542,1.542,0,0,0-1.019-.332h-1.24a1.648,1.648,0,0,0-1.063.354,1.907,1.907,0,0,0-.62.842l-17.717,51.517a16.44,16.44,0,0,0-.531,1.882q-0.222,1-.443,2.149-0.4-2.26-.886-4.031l-15.812-51.517a1.549,1.549,0,0,0-1.639-1.2h-3.764l19.754,62.679h4.03l18.558-54.4q0.354-1.107.62-2.3,0.266,1.2.62,2.3l18.514,54.4h4.075l19.709-62.679h-3.454Zm82.117,18.184a29.436,29.436,0,0,0-6.112-10.122,26.876,26.876,0,0,0-9.456-6.49,31.525,31.525,0,0,0-12.158-2.281,31.066,31.066,0,0,0-12.136,2.3,27.256,27.256,0,0,0-9.434,6.489,29.166,29.166,0,0,0-6.112,10.1,40.947,40.947,0,0,0,0,26.312,29.171,29.171,0,0,0,6.112,10.1,27,27,0,0,0,9.434,6.467,33.47,33.47,0,0,0,24.294,0,26.977,26.977,0,0,0,9.456-6.467,29.2,29.2,0,0,0,6.112-10.1A40.965,40.965,0,0,0,627.382,684.754Zm-4.341,24.938a25.222,25.222,0,0,1-5.137,8.838,21.921,21.921,0,0,1-7.973,5.537,28.561,28.561,0,0,1-20.507,0,22.127,22.127,0,0,1-7.994-5.537,25.276,25.276,0,0,1-5.182-8.838,38.755,38.755,0,0,1,0-23.587,25.251,25.251,0,0,1,5.182-8.86,22.368,22.368,0,0,1,7.994-5.559,28.243,28.243,0,0,1,20.507,0,22.159,22.159,0,0,1,7.973,5.559,25.2,25.2,0,0,1,5.137,8.86A39.2,39.2,0,0,1,623.041,709.692Zm39.684-12.159V670.158H674.2q8.372,0,12.734,3.234t4.362,9.922a14,14,0,0,1-1.2,5.891,12.343,12.343,0,0,1-3.477,4.474,16.058,16.058,0,0,1-5.581,2.857,25.779,25.779,0,0,1-7.463,1H662.725Zm17.1,4.607a7.177,7.177,0,0,0-1.9-1.772,26.629,26.629,0,0,0,7.419-1.905,18.59,18.59,0,0,0,5.625-3.654,15.376,15.376,0,0,0,3.566-5.2,16.854,16.854,0,0,0,1.24-6.556q0-8.106-5.382-12.292T674.2,666.57H658.163v62.679h4.562V700.9h8.194a11.81,11.81,0,0,1,1.573.088,4.359,4.359,0,0,1,1.107.288,2.894,2.894,0,0,1,.842.554,6.119,6.119,0,0,1,.73.841L695.28,728.1a2.478,2.478,0,0,0,.952.908,2.919,2.919,0,0,0,1.262.243h3.9Zm50.846-35.57h-4.562v62.679h4.562v-30.21h4.03a11.312,11.312,0,0,1,1.75.111,4.161,4.161,0,0,1,2.126.952q0.42,0.356.908,0.842l26.486,27.109a3.477,3.477,0,0,0,1,.908,3.537,3.537,0,0,0,1.661.288H772.3l-28.834-30.121a9.063,9.063,0,0,0-1.506-1.44,5.248,5.248,0,0,0-1.683-.819,5.894,5.894,0,0,0,1.44-.8A12.86,12.86,0,0,0,743.2,694.7l27.373-28.128h-3.633a3.97,3.97,0,0,0-1.528.266,3.724,3.724,0,0,0-1.306,1.018l-25.291,26a10.577,10.577,0,0,1-.907.82,3.161,3.161,0,0,1-.931.509,5.01,5.01,0,0,1-1.129.244,14.045,14.045,0,0,1-1.462.066h-3.72V666.57Zm97.352,5.581a20.97,20.97,0,0,0-7.065-4.739,23.372,23.372,0,0,0-8.747-1.551,20.751,20.751,0,0,0-7.729,1.351,17.2,17.2,0,0,0-5.692,3.588,15.119,15.119,0,0,0-3.5,5.161,15.885,15.885,0,0,0-1.2,6.068,14.832,14.832,0,0,0,1.35,6.711,13.477,13.477,0,0,0,3.566,4.474,19.921,19.921,0,0,0,5.027,2.946q2.813,1.152,5.78,2.082t5.78,1.905a22.966,22.966,0,0,1,5.027,2.414,11.656,11.656,0,0,1,3.566,3.588,10.118,10.118,0,0,1,1.35,5.47,15.412,15.412,0,0,1-1.063,5.737,13.041,13.041,0,0,1-3.078,4.629,14.542,14.542,0,0,1-4.938,3.078,18.332,18.332,0,0,1-6.644,1.13,19.938,19.938,0,0,1-4.828-.532,20.312,20.312,0,0,1-3.764-1.306,17.531,17.531,0,0,1-2.879-1.684q-1.24-.908-2.126-1.683t-1.506-1.307a1.776,1.776,0,0,0-1.019-.531,1.556,1.556,0,0,0-1.24.664l-1.24,1.949a25.112,25.112,0,0,0,7.839,6,24.023,24.023,0,0,0,10.674,2.193,22.82,22.82,0,0,0,8.5-1.484,18.4,18.4,0,0,0,6.29-4.053,17.3,17.3,0,0,0,3.919-6.047,20.288,20.288,0,0,0,1.351-7.419,13.833,13.833,0,0,0-1.351-6.445,13.506,13.506,0,0,0-3.565-4.363,20.874,20.874,0,0,0-5.027-2.946q-2.812-1.173-5.78-2.149t-5.78-1.971a23.045,23.045,0,0,1-5.027-2.458,12.154,12.154,0,0,1-3.565-3.544,9.495,9.495,0,0,1-1.351-5.271,12.133,12.133,0,0,1,.908-4.651,11.277,11.277,0,0,1,2.657-3.9,12.525,12.525,0,0,1,4.341-2.658,19.432,19.432,0,0,1,11.737-.133,19.02,19.02,0,0,1,6.333,3.654,2.546,2.546,0,0,0,1.484.82,1.251,1.251,0,0,0,1.152-.753Z"/>
  <path class="cls-2" d="M419.545,212.626l4.721,0.189L417.179,390l-4.72-.189Zm-71.42,48.721s1.33-2.336,1.5-2.625a7.766,7.766,0,0,0,.75-1.5L496.33,345.345l-2.392,4.074Zm-5.379,85.733-1.371-4.714L497,257.6s-0.145-1.131.4-.162a40.227,40.227,0,0,0,2.6,3.538ZM413.174,96.292l3.29-3.39,80.315,77.961-3.29,3.391Zm81.351,78.549,1.217-4.565,106.3,28.35-1.218,4.565Zm103.35,25.368a11.977,11.977,0,0,1,2.275.634l2.225,1.241s0.112-.285-0.375,1.5c-4.5,16.517-26.634,101.895-26.634,101.895l-4.558-1.243ZM570.808,303.116l4.558-1.243,28.346,103.949-4.558,1.243Zm30.076,101.03,1.1,4.595L493.321,434.728l-1.1-4.6ZM491.127,430.735l3.289,3.392-77.953,75.6-3.289-3.392Zm-74.638,75.624-3.34,3.341L335.2,431.739l3.34-3.341Zm-79.014-78.573-1.218,4.565S241.639,404.808,231.125,402A2.529,2.529,0,0,1,230,400.879l1.125-3ZM232.828,402.4L230.75,399s-2.091.863-1.46-1.224c5.25-17.369,29.724-98.331,29.724-98.331l4.523,1.368ZM263.57,301.934l-4.589,1.122L233,196.744l4.589-1.122ZM235.8,198.49l-1.025-4.613,106.3-23.625,1.025,4.613ZM343.286,174.2l-3.391-3.289,75.59-77.962,3.392,3.289Zm79.483,43.079-1.727-4.4L487.183,186.9l1.728,4.4Zm62.937-27.874,4.683-.624,9.449,70.874-4.684.624Zm10.253,72.356,3.074-3.588L548.64,300.7l-3.075,3.587ZM545.6,300.673l3.009,3.643L494.276,349.2l-3.009-3.643Zm-55.152,46.293L495.1,347.8l-11.811,66.149-4.651-.83Zm-8.622,64.366-1.727,4.4-66.142-25.987,1.728-4.4Zm-67.778-26.021,1.546,4.465-61.418,21.262-1.545-4.465ZM355.74,408.472l-4.677.668-9.449-66.149,4.677-.668Zm-10.291-67.644-2.992,3.657-51.969-42.524,2.992-3.657Zm-52.136-38.742-2.657-3.907,59.055-40.162,2.657,3.907ZM353.4,259.97h-4.725V189.1H353.4V259.97Zm-3.176-68.656,1.627-4.436,70.866,25.987-1.627,4.436Zm-10.794-20.158,4.317-1.919,9.626,20.094a5.185,5.185,0,0,1-1.6,1.8,5.753,5.753,0,0,1-2.529.452Zm154.193-.579a10.767,10.767,0,0,1,2.988,1.366c0.557,0.385,1.067.73,1.4,0.938,0.8,0.5-.261-0.054-0.261-0.054l-8.625,19.13-4.125-1.5Zm51.115,134.28v-4.725h30.709v4.725H544.74Zm-68.215,105.08s2.1,2.1,3.1,1.55c1.07-.584,1.05-3.812,1.05-3.812l14.078,25.461-4.052,2.788s-9.445-17.317-12.914-23.679ZM352.25,406.13s-0.038-2.743.887-2.2c1.1,0.642,3.238,4.453,3.238,4.453L338,433.136l-4.125-2.626Zm-57.9-108.36V302.5l-32.846.487a16.474,16.474,0,0,1-.224-2.259,14.978,14.978,0,0,0-.151-2.242ZM415.3,96.909l-0.97-4.624L562.625,61.052,561.76,66.2l-0.431.09ZM559,64.5l3.629-3.451L602.75,201.334s-1.12.722-2.2,1.293a7.982,7.982,0,0,1-1.444.634c-0.208.057-.441-1.507-0.685-1.648l-0.147-.086a2.359,2.359,0,0,1-1.148-.943S564.063,83.191,559.517,66.427Zm40,135.33,1.76-.576L705.125,305.982l-3.806,2.889-1.057-1.081L599.509,204.735C598.133,203.329,599,199.833,599,199.833Zm99.975,105.716,0.7,0.7c0.979,0.979,5.453-.264,5.453-0.264L603.1,408.114l-3.34-3.341Zm-99.763,100.09,4.442,1.609-50.4,139.164s-1.358-2.921-2.666-3.395l-0.978-.354ZM552.418,541.18l0.832,5.232-139.023-36.1,1.183-4.574,136.062,35.192ZM414.3,505.725l1.04,4.609L268.625,543.411a18.139,18.139,0,0,0-.354-2.71c-0.226-1-.429-1.9-0.429-1.9ZM273,540.47l-0.468.131c-1.161.323-3.907,2.81-3.907,2.81L228.291,397.628l4.551-1.269ZM232.237,395.323l-3.341,3.341L126.875,296.23l3.375-3s1.259,1.353,2.8,2.893Zm-99.251-98.208-3.264-3.416,106.3-101.586,3.263,3.416ZM237.561,196.837l-4.54-1.308,40.1-139.353,4.594,1.276-0.757,2.625C271.441,79.241,237.561,196.837,237.561,196.837ZM274.885,61.454l-1.76-5.278L420.107,92.3l-1.128,4.588S275.67,61.468,275.546,61.617A0.911,0.911,0,0,1,274.885,61.454ZM328.56,73.04l-3.31-3.361L416,19.418l2.324,4.01-88.108,48.7Zm85.2-49.567,1.6-3.2A2.586,2.586,0,0,1,416,19.418l103.812,51.8L517.7,75.448Zm160.479,89.692-0.366-5.6,91.5,54.387-3.732,3.189-85.8-51.024Zm86.252,50.094,2.571-.164a4.826,4.826,0,0,0,2.311-1.145l6.919,112.044-4.714.3ZM662.851,342.6l4.723,0.11L665,443.263l-2.478.508a15.89,15.89,0,0,1-2.4.242s-0.018-.355,0-1.125C660.388,431.555,662.851,342.6,662.851,342.6Zm-1.266,97.283,0.873,1.376a7.1,7.1,0,0,0,2.542,2L567.265,505.3l-2.53-3.99Zm-161.21,90.773,5.368,0.692L413.75,583.545s-0.931-1.636-1.591-2.807l-0.863-1.529,87.348-49.279C501.668,528.224,500.375,530.658,500.375,530.658Zm-86.25,47.636s1.277-.615.811,0.363a31.574,31.574,0,0,0-1.186,4.888L312.5,532.533l4.122-3.011,2.413,1.206ZM257.751,491.82l-1.876,4.33-93.75-54.387,3.5-4.28,90.459,53.354Zm-90.966-50.036-4.66-.021-4.784-115.547,4.72-.193s4.277,104.8,4.692,114.97Zm0-179.342-4.66,1.156,4.5-103.148,4.884,0.406s-3.934,84.588-4.622,99.39C166.821,261.665,166.785,262.442,166.785,262.442Zm1.254-97.33-0.507-.812a11.118,11.118,0,0,1-.907-3.85l93.4-58.406,2.5,4.006Z"/>
</svg>
