<svg xmlns="http://www.w3.org/2000/svg" width="1113" height="241" viewBox="0 0 1113 241">
  <metadata><?xpacket begin="﻿" id="W5M0MpCehiHzreSzNTczkc9d"?>
<x:xmpmeta xmlns:x="adobe:ns:meta/" x:xmptk="Adobe XMP Core 5.6-c140 79.160451, 2017/05/06-01:08:21        ">
   <rdf:RDF xmlns:rdf="http://www.w3.org/1999/02/22-rdf-syntax-ns#">
      <rdf:Description rdf:about=""/>
   </rdf:RDF>
</x:xmpmeta>
                                                                                                    
                                                                                                    
                                                                                                    
                                                                                                    
                                                                                                    
                                                                                                    
                                                                                                    
                                                                                                    
                                                                                                    
                                                                                                    
                                                                                                    
                                                                                                    
                                                                                                    
                                                                                                    
                                                                                                    
                                                                                                    
                                                                                                    
                                                                                                    
                                                                                                    
                                                                                                    
                           
<?xpacket end="w"?></metadata>
<defs>
    <style>
      .cls-1, .cls-2 {
        fill: #e51041;
        fill-rule: evenodd;
      }

      .cls-2 {
        stroke: #e51041;
        stroke-linejoin: round;
        stroke-width: 6px;
      }
    </style>
  </defs>
  <path id="Cactus.Works" class="cls-1" d="M319.829,140.8a25.571,25.571,0,0,1-3.3,2.591,17.661,17.661,0,0,1-3.587,1.794,20.844,20.844,0,0,1-4.208,1.041,35.658,35.658,0,0,1-5.116.332,22.121,22.121,0,0,1-8.659-1.683,19.639,19.639,0,0,1-6.954-4.9,23.34,23.34,0,0,1-4.65-7.862,30.621,30.621,0,0,1-1.705-10.587,31.478,31.478,0,0,1,1.638-10.5,22.792,22.792,0,0,1,4.585-7.885,19.631,19.631,0,0,1,7.02-4.939,23.068,23.068,0,0,1,8.991-1.705A22.406,22.406,0,0,1,315.4,99.3a29.6,29.6,0,0,1,3.011,1.927,3.516,3.516,0,0,0,1.949.864,1.973,1.973,0,0,0,1.13-.288,2.318,2.318,0,0,0,.686-0.731l2.835-3.942a30.119,30.119,0,0,0-9.124-5.891,30.759,30.759,0,0,0-11.959-2.171,32.648,32.648,0,0,0-12.623,2.37A28.415,28.415,0,0,0,281.5,98.1a30.1,30.1,0,0,0-6.356,10.277,36.954,36.954,0,0,0-2.259,13.156,38.308,38.308,0,0,0,2.17,13.156,30.039,30.039,0,0,0,6.112,10.255,27.267,27.267,0,0,0,9.523,6.644,31.421,31.421,0,0,0,12.4,2.37,32.366,32.366,0,0,0,13.442-2.525,27.154,27.154,0,0,0,9.456-7.043l-3.41-3.677a1.641,1.641,0,0,0-1.24-.575,2.288,2.288,0,0,0-1.506.664h0Zm40.305-11.118L370.1,103.9A48.2,48.2,0,0,0,372,97.923q0.442,1.728.93,3.256t0.93,2.68l9.966,25.825h-23.7Zm16.21-39.912h-8.681l-25.379,63.477h6.644a2.826,2.826,0,0,0,1.86-.62,3.109,3.109,0,0,0,1.019-1.417l5.935-15.327h28.479l5.936,15.327a3.522,3.522,0,0,0,1.062,1.461,2.853,2.853,0,0,0,1.861.576h6.643ZM465.68,140.8a25.571,25.571,0,0,1-3.3,2.591,17.643,17.643,0,0,1-3.588,1.794,20.818,20.818,0,0,1-4.207,1.041,35.668,35.668,0,0,1-5.116.332,22.121,22.121,0,0,1-8.659-1.683,19.639,19.639,0,0,1-6.954-4.9,23.34,23.34,0,0,1-4.65-7.862,30.621,30.621,0,0,1-1.706-10.587,31.452,31.452,0,0,1,1.639-10.5,22.774,22.774,0,0,1,4.584-7.885,19.635,19.635,0,0,1,7.021-4.939,23.068,23.068,0,0,1,8.991-1.705A22.4,22.4,0,0,1,461.25,99.3a29.519,29.519,0,0,1,3.012,1.927,3.516,3.516,0,0,0,1.949.864,1.969,1.969,0,0,0,1.129-.288,2.309,2.309,0,0,0,.687-0.731l2.835-3.942a30.131,30.131,0,0,0-9.124-5.891,30.759,30.759,0,0,0-11.959-2.171,32.648,32.648,0,0,0-12.623,2.37,28.429,28.429,0,0,0-9.811,6.667,30.1,30.1,0,0,0-6.355,10.277,36.954,36.954,0,0,0-2.259,13.156,38.308,38.308,0,0,0,2.17,13.156,30.023,30.023,0,0,0,6.112,10.255,27.258,27.258,0,0,0,9.523,6.644,31.416,31.416,0,0,0,12.4,2.37,32.367,32.367,0,0,0,13.443-2.525,27.163,27.163,0,0,0,9.456-7.043l-3.41-3.677a1.645,1.645,0,0,0-1.241-.575,2.286,2.286,0,0,0-1.5.664h0Zm73.213-51.029H489.2v7.22h20.6v56.256h8.548V96.993h20.551v-7.22Zm40.992,55.3a14.972,14.972,0,0,1-5.271-3.743,16.267,16.267,0,0,1-3.278-5.715,22.587,22.587,0,0,1-1.129-7.309V89.773h-8.548v38.582a28.937,28.937,0,0,0,1.749,10.188,23.49,23.49,0,0,0,5.027,8.128,23.106,23.106,0,0,0,7.973,5.382,29.48,29.48,0,0,0,21.082,0,22.884,22.884,0,0,0,7.951-5.382,23.681,23.681,0,0,0,5-8.128,28.959,28.959,0,0,0,1.749-10.188V89.773h-8.548v38.582a22.591,22.591,0,0,1-1.13,7.309,16.269,16.269,0,0,1-3.277,5.714,14.789,14.789,0,0,1-5.249,3.721A19.232,19.232,0,0,1,579.885,145.077ZM676.328,95.62a22.875,22.875,0,0,0-7.685-4.873,26.685,26.685,0,0,0-9.677-1.683,22.465,22.465,0,0,0-8.393,1.462,18.613,18.613,0,0,0-6.157,3.9,16.622,16.622,0,0,0-3.809,5.581,18.256,18.256,0,0,0,0,13.577,14.238,14.238,0,0,0,3.433,4.762,17.989,17.989,0,0,0,4.872,3.1,58.8,58.8,0,0,0,5.58,2.105q2.835,0.907,5.581,1.771a23.909,23.909,0,0,1,4.872,2.1,10.868,10.868,0,0,1,3.433,3.079,7.963,7.963,0,0,1,1.306,4.718,12.2,12.2,0,0,1-.886,4.739,10.274,10.274,0,0,1-2.546,3.655,11.57,11.57,0,0,1-4.053,2.37,16.36,16.36,0,0,1-5.448.841,18.94,18.94,0,0,1-4.385-.465,18.409,18.409,0,0,1-3.477-1.174,17.543,17.543,0,0,1-2.723-1.55q-1.2-.841-2.126-1.55t-1.661-1.174a2.517,2.517,0,0,0-1.307-.465,2.015,2.015,0,0,0-1.129.332,3.257,3.257,0,0,0-.864.819l-2.48,4.076a26.376,26.376,0,0,0,8.636,6.046,27.468,27.468,0,0,0,11.25,2.237,24.611,24.611,0,0,0,9.014-1.55,19.378,19.378,0,0,0,6.688-4.253,18.022,18.022,0,0,0,4.141-6.356,21.435,21.435,0,0,0,1.417-7.819,15.2,15.2,0,0,0-1.306-6.644,14.063,14.063,0,0,0-3.455-4.563,19.648,19.648,0,0,0-4.872-3.078q-2.724-1.218-5.581-2.193t-5.581-1.883a26.388,26.388,0,0,1-4.872-2.148,11.225,11.225,0,0,1-3.454-2.99,7.157,7.157,0,0,1-1.307-4.407,9.913,9.913,0,0,1,.753-3.876,8.629,8.629,0,0,1,2.237-3.123,10.859,10.859,0,0,1,3.676-2.1,15.2,15.2,0,0,1,5.071-.775,15.829,15.829,0,0,1,5.205.753,20.582,20.582,0,0,1,3.676,1.661q1.527,0.908,2.546,1.661a3.161,3.161,0,0,0,1.772.753,1.9,1.9,0,0,0,1.13-.332,3.257,3.257,0,0,0,.863-1Zm27,57.12a3.943,3.943,0,0,0,2.9,1.174,4.166,4.166,0,0,0,1.595-.31,3.969,3.969,0,0,0,1.306-.864,4.323,4.323,0,0,0,.886-1.285,3.849,3.849,0,0,0,.332-1.617,3.9,3.9,0,0,0-.332-1.594,4.19,4.19,0,0,0-2.192-2.193,3.92,3.92,0,0,0-1.595-.332,3.863,3.863,0,0,0-1.616.332,4.342,4.342,0,0,0-1.285.886,3.974,3.974,0,0,0-.864,1.307,4.161,4.161,0,0,0-.31,1.594A3.94,3.94,0,0,0,703.323,152.74ZM810.265,90.57a1.74,1.74,0,0,0-1.085.354,1.574,1.574,0,0,0-.6.842L792.77,143.283q-0.222.887-.421,1.882t-0.421,2.1q-0.222-1.107-.465-2.126a16.541,16.541,0,0,0-.554-1.86L773.193,91.766a2.2,2.2,0,0,0-.62-0.864,1.539,1.539,0,0,0-1.019-.332h-1.24a1.648,1.648,0,0,0-1.063.354,1.908,1.908,0,0,0-.62.842l-17.717,51.517a16.44,16.44,0,0,0-.531,1.882q-0.222,1-.443,2.149-0.4-2.261-.886-4.031L733.242,91.766a1.549,1.549,0,0,0-1.639-1.2h-3.764l19.754,62.679h4.03l18.558-54.4q0.354-1.107.62-2.3,0.265,1.2.62,2.3l18.514,54.4h4.075L813.719,90.57h-3.454Zm82.117,18.184a29.438,29.438,0,0,0-6.112-10.122,26.862,26.862,0,0,0-9.456-6.489,31.514,31.514,0,0,0-12.158-2.281,31.082,31.082,0,0,0-12.136,2.3,27.273,27.273,0,0,0-9.434,6.489,29.166,29.166,0,0,0-6.112,10.1,40.947,40.947,0,0,0,0,26.312,29.171,29.171,0,0,0,6.112,10.1,27,27,0,0,0,9.434,6.467,33.47,33.47,0,0,0,24.294,0,26.977,26.977,0,0,0,9.456-6.467,29.2,29.2,0,0,0,6.112-10.1A40.965,40.965,0,0,0,892.382,108.754Zm-4.341,24.938a25.222,25.222,0,0,1-5.137,8.838,21.921,21.921,0,0,1-7.973,5.537,28.561,28.561,0,0,1-20.507,0,22.127,22.127,0,0,1-7.994-5.537,25.276,25.276,0,0,1-5.182-8.838,38.755,38.755,0,0,1,0-23.587,25.251,25.251,0,0,1,5.182-8.86,22.365,22.365,0,0,1,7.994-5.559,28.244,28.244,0,0,1,20.507,0,22.156,22.156,0,0,1,7.973,5.559,25.2,25.2,0,0,1,5.137,8.86A39.2,39.2,0,0,1,888.041,133.692Zm39.684-12.159V94.158H939.2q8.372,0,12.734,3.234t4.362,9.923a14,14,0,0,1-1.2,5.891,12.343,12.343,0,0,1-3.477,4.474,16.058,16.058,0,0,1-5.581,2.857,25.779,25.779,0,0,1-7.463,1H927.725Zm17.1,4.607a7.177,7.177,0,0,0-1.9-1.772,26.629,26.629,0,0,0,7.419-1.905,18.59,18.59,0,0,0,5.625-3.654,15.376,15.376,0,0,0,3.566-5.2,16.854,16.854,0,0,0,1.24-6.556q0-8.106-5.382-12.292T939.2,90.57H923.163v62.679h4.562V124.9h8.194a11.81,11.81,0,0,1,1.573.088,4.359,4.359,0,0,1,1.107.288,2.894,2.894,0,0,1,.842.554,6.119,6.119,0,0,1,.73.841L960.28,152.1a2.478,2.478,0,0,0,.952.908,2.919,2.919,0,0,0,1.262.243h3.9Zm50.846-35.57h-4.562v62.679h4.562v-30.21h4.03a11.331,11.331,0,0,1,1.752.111,4.171,4.171,0,0,1,2.12.952c0.28,0.237.59,0.517,0.91,0.842l26.49,27.109a3.4,3.4,0,0,0,.99.908,3.58,3.58,0,0,0,1.67.288h3.67l-28.83-30.121a9.077,9.077,0,0,0-1.51-1.44,5.213,5.213,0,0,0-1.68-.819,5.95,5.95,0,0,0,1.44-.8,12.544,12.544,0,0,0,1.48-1.373l27.37-28.128h-3.63a4,4,0,0,0-1.53.266,3.749,3.749,0,0,0-1.3,1.019l-25.29,26a11.382,11.382,0,0,1-.91.82,3.144,3.144,0,0,1-.93.509,5.068,5.068,0,0,1-1.13.244,13.991,13.991,0,0,1-1.462.066h-3.72V90.57Zm97.352,5.581a21.029,21.029,0,0,0-7.06-4.74,23.417,23.417,0,0,0-8.75-1.55,20.728,20.728,0,0,0-7.73,1.351,17.128,17.128,0,0,0-5.69,3.588,15.073,15.073,0,0,0-3.5,5.16,15.836,15.836,0,0,0-1.2,6.068,14.846,14.846,0,0,0,1.35,6.711,13.438,13.438,0,0,0,3.57,4.474,19.922,19.922,0,0,0,5.03,2.946q2.805,1.152,5.78,2.082,2.955,0.93,5.78,1.905a22.864,22.864,0,0,1,5.02,2.414,11.615,11.615,0,0,1,3.57,3.588,10.118,10.118,0,0,1,1.35,5.47,15.39,15.39,0,0,1-1.06,5.737,13.113,13.113,0,0,1-3.08,4.629,14.6,14.6,0,0,1-4.94,3.078,18.313,18.313,0,0,1-6.64,1.13,19.914,19.914,0,0,1-4.83-.532,20.509,20.509,0,0,1-3.77-1.306,17.841,17.841,0,0,1-2.88-1.684c-0.82-.6-1.53-1.166-2.12-1.683s-1.09-.952-1.51-1.307a1.756,1.756,0,0,0-1.02-.531,1.569,1.569,0,0,0-1.24.664l-1.24,1.949a25.231,25.231,0,0,0,7.84,6,24.056,24.056,0,0,0,10.68,2.193,22.794,22.794,0,0,0,8.5-1.484,18.377,18.377,0,0,0,6.29-4.053,17.33,17.33,0,0,0,3.92-6.047,20.309,20.309,0,0,0,1.35-7.419,13.846,13.846,0,0,0-1.35-6.445,13.569,13.569,0,0,0-3.56-4.363,21.05,21.05,0,0,0-5.03-2.946c-1.88-.782-3.8-1.5-5.78-2.149s-3.91-1.306-5.78-1.971a23.07,23.07,0,0,1-5.03-2.458,12.1,12.1,0,0,1-3.56-3.544,9.43,9.43,0,0,1-1.36-5.271,12.248,12.248,0,0,1,.91-4.651,11.338,11.338,0,0,1,2.66-3.9,12.54,12.54,0,0,1,4.34-2.658,19.449,19.449,0,0,1,11.74-.133,19.3,19.3,0,0,1,3.87,1.838,18.586,18.586,0,0,1,2.46,1.816,2.555,2.555,0,0,0,1.49.82,1.253,1.253,0,0,0,1.15-.753Z"/>
  <path class="cls-2" d="M130.3,88.9l1.73,0.069-2.6,65.017-1.73-.069Zm-26.185,17.878s0.488-.858.55-0.964a2.839,2.839,0,0,0,.275-0.55L158.451,137.6l-0.877,1.5Zm-1.972,31.459-0.5-1.73L158.7,105.4s-0.053-.416.147-0.06a14.815,14.815,0,0,0,.953,1.3Zm25.821-92.024,1.206-1.244,29.445,28.607-1.206,1.244Zm29.825,28.823,0.446-1.675,38.972,10.4-0.446,1.675Zm37.891,9.308a4.4,4.4,0,0,1,.834.233l0.815,0.455a1.464,1.464,0,0,1-.137.551c-1.651,6.06-9.765,37.389-9.765,37.389l-1.671-.456Zm-9.924,37.761,1.671-.457,10.393,38.143-1.671.457Zm11.027,37.071,0.4,1.687L157.348,170.4l-0.4-1.686Zm-40.24,9.757,1.206,1.245-28.579,27.74-1.206-1.245Zm-27.364,27.75-1.224,1.225L99.375,169.3l1.225-1.226Zm-28.968-28.832-0.447,1.675S65.075,159.419,61.221,158.39a0.924,0.924,0,0,1-.413-0.412l0.413-1.1Zm-38.366-9.314-0.762-1.248s-0.767.317-.535-0.449l10.9-36.081,1.658,0.5Zm11.271-36.866-1.683.411-9.526-39.01,1.682-.412ZM62.936,83.713L62.56,82.02l38.972-8.669,0.376,1.692ZM102.341,74.8L101.1,73.594l27.713-28.607,1.244,1.207Zm29.141,15.807-0.634-1.614,24.25-9.536,0.633,1.614Zm23.074-10.228,1.717-.229,3.464,26.007-1.717.229Zm3.759,26.551,1.127-1.317,18.187,15.6-1.127,1.317Zm18.2,14.277,1.1,1.337L157.7,139.016l-1.1-1.337ZM156.294,138.2L158,138.5l-4.33,24.272-1.705-.3Zm-3.161,23.618-0.634,1.614-24.249-9.536,0.634-1.614Zm-24.849-9.548,0.566,1.639-22.517,7.8-0.566-1.638Zm-21.377,8.5-1.714.245-3.465-24.273,1.715-.245Zm-3.773-24.821-1.1,1.341-19.053-15.6,1.1-1.341ZM84.02,121.726l-0.974-1.433L104.7,105.556l0.974,1.433Zm22.03-15.454h-1.732V80.266h1.732v26.006ZM104.886,81.08l0.6-1.628,25.981,9.536-0.6,1.628Zm-3.958-7.4,1.583-.7,3.529,7.373a1.9,1.9,0,0,1-.585.66,2.1,2.1,0,0,1-.927.166Zm56.531-.212a3.943,3.943,0,0,1,1.1.5c0.2,0.141.391,0.268,0.512,0.344,0.295,0.184-.1-0.02-0.1-0.02l-3.162,7.019-1.512-.55Zm18.74,49.272V121.01h11.259v1.733H176.2ZM151.19,161.3s0.768,0.77,1.135.569a2.192,2.192,0,0,0,.385-1.4l5.162,9.343-1.486,1.023-4.735-8.689Zm-45.562-1.4s-0.014-1.006.325-.808a7.111,7.111,0,0,1,1.187,1.634l-6.737,9.084-1.512-.963ZM84.4,120.143v1.733l-12.042.179a6.02,6.02,0,0,1-.082-0.829,5.5,5.5,0,0,0-.055-0.822Zm44.346-73.7-0.356-1.7,54.367-11.461-0.317,1.888-0.158.033Zm52.681-11.891,1.33-1.266,14.711,51.475s-0.411.265-.807,0.474a2.979,2.979,0,0,1-.529.233c-0.077.021-.162-0.553-0.252-0.605l-0.053-.031a0.862,0.862,0,0,1-.421-0.346s-12.122-43.076-13.788-49.227C181.492,34.795,181.426,34.548,181.426,34.548Zm14.666,49.658,0.645-.212L235,123.156l-1.4,1.06s-0.135-.137-0.388-0.4L196.279,86A2.389,2.389,0,0,1,196.092,84.206ZM232.745,123L233,123.253c0.359,0.359,2-.1,2-0.1l-37.4,37.476-1.224-1.226ZM196.17,159.724l1.628,0.591-18.479,51.064a3.017,3.017,0,0,0-.977-1.245l-0.359-.13ZM179.014,209.46l0.3,1.919L128.35,198.135l0.434-1.679,49.883,12.914Zm-50.638-13.01,0.382,1.691L74.969,210.278a6.678,6.678,0,0,0-.13-0.994l-0.157-.7ZM76.573,209.2l-0.171.048a6.648,6.648,0,0,0-1.432,1.031L60.182,156.785l1.668-.466Zm-14.944-53.26L60.4,157.165,23,119.578l1.237-1.1s0.462,0.5,1.026,1.061ZM25.241,119.9l-1.2-1.254L63.016,81.373l1.2,1.254Zm38.34-36.8-1.664-.48,14.7-51.134L78.3,31.96l-0.277.963ZM77.264,33.429l-0.645-1.937,53.887,13.256-0.414,1.684s-52.54-13-52.586-12.944A0.334,0.334,0,0,1,77.264,33.429ZM96.942,37.68l-1.214-1.233L129,18l0.852,1.471L97.55,37.344ZM128.18,19.492l0.587-1.176A0.95,0.95,0,0,1,129,18l38.06,19.009-0.775,1.551ZM187.015,52.4l-0.134-2.056,33.546,19.957-1.369,1.17L187.6,52.753Zm31.622,18.382,0.943-.06a1.774,1.774,0,0,0,.847-0.42l2.537,41.114-1.729.11Zm0.864,65.808,1.732,0.041-0.944,36.9-0.908.187a5.905,5.905,0,0,1-.879.088s-0.007-.13,0-0.413C218.6,169.234,219.5,136.593,219.5,136.593Zm-0.464,35.7,0.32,0.5a2.6,2.6,0,0,0,.932.735l-35.832,22.764-0.927-1.464Zm-59.1,33.308,1.968,0.254-33.727,19.152s-0.341-.6-0.583-1.03l-0.317-.561L159.3,205.332C160.408,204.706,159.934,205.6,159.934,205.6Zm-31.621,17.479s0.468-.225.3,0.134a11.6,11.6,0,0,0-.435,1.793L91.055,206.287l1.511-1.105,0.885,0.443ZM70.982,191.347l-0.688,1.589L35.924,172.98l1.283-1.571,33.165,19.578Zm-33.35-18.36-1.709-.007-1.754-42.4,1.731-.071L37.62,172.7Zm0-65.807-1.708.424,1.65-37.85L39.364,69.9l-1.695,36.47C37.645,106.894,37.632,107.18,37.632,107.18Zm0.46-35.715-0.186-.3a4.087,4.087,0,0,1-.332-1.413L71.815,48.323l0.918,1.47Z"/>
</svg>
