<svg id="Layer_1" data-name="Layer 1" xmlns="http://www.w3.org/2000/svg" viewBox="0 0 852 747"><defs><style>.cls-1{font-size:90px;font-family:Lato-Semibold, Lato;letter-spacing:0.15em;}.cls-1,.cls-8{fill:#e51041;}.cls-2,.cls-3,.cls-4{font-weight:700;}.cls-3{letter-spacing:0.13em;}.cls-4{letter-spacing:0.15em;}.cls-5{font-family:Lato-Regular, Lato;}.cls-6,.cls-7{font-family:Lato-Light, Lato;}.cls-6{letter-spacing:0.14em;}.cls-8{stroke:#e51041;stroke-linejoin:round;stroke-width:6px;}</style></defs><title>Artboard 1</title><text class="cls-1" transform="translate(-3 730)"><tspan class="cls-2">C</tspan><tspan class="cls-3" x="72.94" y="0">A</tspan><tspan class="cls-4" x="146.07" y="0">CTUS</tspan><tspan class="cls-5" x="427.67" y="0"> </tspan><tspan class="cls-6" x="463.85" y="0">W</tspan><tspan class="cls-7" x="568.12" y="0">ORKS</tspan></text><path class="cls-8" d="M419.55,212.63l4.72.19L417.18,390l-4.72-.19Zm-71.42,48.72,1.5-2.62a7.77,7.77,0,0,0,.75-1.5l146,88.12-2.39,4.07Zm-5.38,85.73-1.37-4.71L497,257.6s-.14-1.13.4-.16A40.23,40.23,0,0,0,500,261ZM413.17,96.29l3.29-3.39,80.32,78-3.29,3.39Zm81.35,78.55,1.22-4.57L602,198.63l-1.22,4.57Zm103.35,25.37a12,12,0,0,1,2.28.63l2.22,1.24s.11-.29-.37,1.5c-4.5,16.52-26.63,101.9-26.63,101.9l-4.56-1.24ZM570.81,303.12l4.56-1.24,28.35,103.95-4.56,1.24Zm30.08,101,1.1,4.6-108.66,26-1.1-4.6ZM491.13,430.73l3.29,3.39-78,75.6-3.29-3.39Zm-74.64,75.62-3.34,3.34-77.95-78,3.34-3.34Zm-79-78.57-1.22,4.57S241.64,404.81,231.13,402a2.53,2.53,0,0,1-1.12-1.12l1.13-3ZM232.83,402.4l-2.08-3.4s-2.09.86-1.46-1.22L259,299.45l4.52,1.37Zm30.74-100.47L259,303.06,233,196.74l4.59-1.12ZM235.8,198.49l-1-4.61,106.3-23.62,1,4.61ZM343.29,174.2l-3.39-3.29,75.59-78,3.39,3.29Zm79.48,43.08-1.73-4.4,66.14-26,1.73,4.4Zm62.94-27.87,4.68-.62,9.45,70.87-4.68.62ZM496,261.76l3.07-3.59,49.61,42.53-3.08,3.59Zm49.64,38.91,3,3.64L494.28,349.2l-3-3.64ZM490.45,347l4.65.83-11.81,66.15-4.65-.83Zm-8.62,64.37-1.73,4.4-66.14-26,1.73-4.4Zm-67.78-26,1.55,4.46L354.18,411l-1.55-4.46Zm-58.31,23.16-4.68.67L341.61,343l4.68-.67Zm-10.29-67.64-3,3.66-52-42.52,3-3.66Zm-52.14-38.74-2.66-3.91L349.71,258l2.66,3.91ZM353.4,260h-4.73V189.1h4.73Zm-3.18-68.66,1.63-4.44,70.87,26-1.63,4.44Zm-10.79-20.16,4.32-1.92,9.63,20.09a5.19,5.19,0,0,1-1.6,1.8,5.75,5.75,0,0,1-2.53.45Zm154.19-.58a10.77,10.77,0,0,1,3,1.37c.56.38,1.07.73,1.4.94.8.5-.26-.05-.26-.05L489.13,192l-4.12-1.5Zm51.11,134.28v-4.73h30.71v4.73H544.74ZM476.52,409.94s2.1,2.1,3.1,1.55,1-3.81,1-3.81l14.08,25.46-4.05,2.79-12.91-23.68Zm-124.27-3.81s0-2.74.89-2.2c1.1.64,3.24,4.45,3.24,4.45L338,433.14l-4.12-2.63Zm-57.9-108.36v4.73L261.5,303a16.47,16.47,0,0,1-.22-2.26,15,15,0,0,0-.15-2.24ZM415.3,96.91l-1-4.62,148.3-31.23-.86,5.15-.43.09ZM559,64.5,562.63,61l40.12,140.28s-1.12.72-2.2,1.29a8,8,0,0,1-1.44.63c-.21.06-.44-1.51-.68-1.65l-.15-.09a2.36,2.36,0,0,1-1.15-.94S564.06,83.19,559.52,66.43Zm40,135.33,1.76-.58L705.13,306l-3.81,2.89-1.06-1.08L599.51,204.74c-1.38-1.41-.51-4.9-.51-4.9ZM699,305.55l.7.7c1,1,5.45-.26,5.45-.26l-102,102.13-3.34-3.34ZM599.21,405.64l4.44,1.61-50.4,139.16s-1.36-2.92-2.67-3.4l-1-.35ZM552.42,541.18l.83,5.23-139-36.1,1.18-4.57,136.06,35.19ZM414.3,505.73l1,4.61L268.63,543.41a18.14,18.14,0,0,0-.35-2.71l-.43-1.9ZM273,540.47l-.47.13c-1.16.32-3.91,2.81-3.91,2.81L228.29,397.63l4.55-1.27ZM232.24,395.32l-3.34,3.34-102-102.43,3.38-3s1.26,1.35,2.8,2.89ZM133,297.11l-3.26-3.42L236,192.11l3.26,3.42ZM237.56,196.84,233,195.53l40.1-139.35,4.59,1.28L277,60.08C271.44,79.24,237.56,196.84,237.56,196.84ZM274.89,61.45l-1.76-5.28,147,36.12L419,96.89S275.67,61.47,275.55,61.62A.91.91,0,0,1,274.89,61.45ZM328.56,73l-3.31-3.36L416,19.42l2.32,4-88.11,48.7Zm85.2-49.57,1.6-3.2a2.59,2.59,0,0,1,.64-.85l103.81,51.8-2.11,4.23Zm160.48,89.69-.37-5.6L665.37,162l-3.73,3.19-85.8-51Zm86.25,50.09,2.57-.16a4.83,4.83,0,0,0,2.31-1.15l6.92,112-4.71.3Zm2.36,179.34,4.72.11L665,443.26l-2.48.51a15.89,15.89,0,0,1-2.4.24s0-.36,0-1.12C660.39,431.55,662.85,342.6,662.85,342.6Zm-1.27,97.28.87,1.38a7.1,7.1,0,0,0,2.54,2l-97.73,62-2.53-4ZM500.38,530.66l5.37.69-92,52.2-1.59-2.81-.86-1.53,87.35-49.28c3-1.71,1.73.73,1.73.73Zm-86.25,47.64s1.28-.61.81.36a31.57,31.57,0,0,0-1.19,4.89l-101.25-51,4.12-3,2.41,1.21ZM257.75,491.82l-1.88,4.33-93.75-54.39,3.5-4.28,90.46,53.35Zm-91-50-4.66,0-4.78-115.55,4.72-.19,4.69,115Zm0-179.34-4.66,1.16,4.5-103.15,4.88.41-4.62,99.39-.1,2.2ZM168,165.11l-.51-.81a11.12,11.12,0,0,1-.91-3.85L260,102l2.5,4Z"/></svg>